<svg width="508" height="188" viewBox="0 0 508 188" fill="none" xmlns="http://www.w3.org/2000/svg">
<path d="M368.722 10.128H363.346V24H360.01V10.128H354.634V6.984H368.722V10.128ZM374.076 17.064V24H370.884V6.624H374.076V13.176C374.844 12.264 376.14 11.88 377.268 11.88C380.268 11.88 381.66 13.968 381.66 16.56V24H378.468V17.112C378.468 15.792 377.82 14.76 376.284 14.76C374.94 14.76 374.148 15.768 374.076 17.064ZM384.179 20.784C384.179 18.672 385.739 17.496 387.707 17.208L390.611 16.776C391.283 16.68 391.499 16.344 391.499 15.936C391.499 15.096 390.851 14.4 389.507 14.4C388.115 14.4 387.347 15.288 387.251 16.32L384.419 15.72C384.611 13.872 386.315 11.832 389.483 11.832C393.227 11.832 394.619 13.944 394.619 16.32V22.128C394.619 22.752 394.691 23.592 394.763 24H391.835C391.763 23.688 391.715 23.04 391.715 22.584C391.115 23.52 389.987 24.336 388.235 24.336C385.715 24.336 384.179 22.632 384.179 20.784ZM388.907 21.96C390.251 21.96 391.499 21.312 391.499 19.224V18.696L388.835 19.104C388.019 19.224 387.371 19.68 387.371 20.592C387.371 21.288 387.875 21.96 388.907 21.96ZM401.029 17.208V24H397.837V12.192H400.933V13.656C401.653 12.432 403.069 11.88 404.341 11.88C407.269 11.88 408.613 13.968 408.613 16.56V24H405.421V17.112C405.421 15.792 404.773 14.76 403.237 14.76C401.845 14.76 401.029 15.84 401.029 17.208ZM423.3 12.192L418.572 17.16L423.396 24H419.484L416.364 19.488L415.044 20.88V24H411.852V6.624H415.044V16.584L419.124 12.192H423.3ZM435.268 28.656H431.884L434.668 22.512L429.652 12.192H433.228L436.372 19.104L439.276 12.192H442.684L435.268 28.656ZM449.36 21.456C450.92 21.456 452.36 20.328 452.36 18.096C452.36 15.864 450.92 14.736 449.36 14.736C447.8 14.736 446.36 15.864 446.36 18.096C446.36 20.304 447.8 21.456 449.36 21.456ZM449.36 11.832C452.888 11.832 455.552 14.448 455.552 18.096C455.552 21.72 452.888 24.36 449.36 24.36C445.832 24.36 443.168 21.72 443.168 18.096C443.168 14.448 445.832 11.832 449.36 11.832ZM465.752 24C465.704 23.76 465.656 23.208 465.656 22.728C465.008 23.832 463.64 24.312 462.392 24.312C459.536 24.312 457.904 22.224 457.904 19.656V12.192H461.096V19.008C461.096 20.328 461.768 21.384 463.256 21.384C464.672 21.384 465.488 20.424 465.488 19.056V12.192H468.68V21.864C468.68 22.776 468.752 23.592 468.8 24H465.752ZM483.489 9.264C482.769 9.264 481.833 9.576 481.833 10.896V12.192H484.497V14.928H481.833V24H478.617V14.928H476.649V12.192H478.617V10.848C478.617 8.184 480.297 6.456 482.913 6.456C483.585 6.456 484.233 6.576 484.497 6.696V9.384C484.329 9.336 484.017 9.264 483.489 9.264ZM491.617 21.456C493.177 21.456 494.617 20.328 494.617 18.096C494.617 15.864 493.177 14.736 491.617 14.736C490.057 14.736 488.617 15.864 488.617 18.096C488.617 20.304 490.057 21.456 491.617 21.456ZM491.617 11.832C495.145 11.832 497.809 14.448 497.809 18.096C497.809 21.72 495.145 24.36 491.617 24.36C488.089 24.36 485.425 21.72 485.425 18.096C485.425 14.448 488.089 11.832 491.617 11.832ZM507.529 12.144V15.36C507.169 15.288 506.857 15.264 506.569 15.264C504.937 15.264 503.521 16.056 503.521 18.6V24H500.329V12.192H503.425V13.944C504.145 12.384 505.777 12.096 506.785 12.096C507.049 12.096 507.289 12.12 507.529 12.144ZM388.701 58.56H385.509V42.192H388.605V43.632C389.133 42.72 390.453 41.928 392.229 41.928C395.685 41.928 397.677 44.568 397.677 48.072C397.677 51.648 395.445 54.288 392.109 54.288C390.477 54.288 389.277 53.64 388.701 52.848V58.56ZM394.533 48.096C394.533 46.008 393.237 44.784 391.605 44.784C389.973 44.784 388.653 46.008 388.653 48.096C388.653 50.184 389.973 51.432 391.605 51.432C393.237 51.432 394.533 50.208 394.533 48.096ZM407.885 54C407.837 53.76 407.789 53.208 407.789 52.728C407.141 53.832 405.773 54.312 404.525 54.312C401.669 54.312 400.037 52.224 400.037 49.656V42.192H403.229V49.008C403.229 50.328 403.901 51.384 405.389 51.384C406.805 51.384 407.621 50.424 407.621 49.056V42.192H410.813V51.864C410.813 52.776 410.885 53.592 410.933 54H407.885ZM421.42 42.144V45.36C421.06 45.288 420.748 45.264 420.46 45.264C418.828 45.264 417.412 46.056 417.412 48.6V54H414.22V42.192H417.316V43.944C418.036 42.384 419.668 42.096 420.676 42.096C420.94 42.096 421.18 42.12 421.42 42.144ZM428.852 44.784C427.22 44.784 425.852 45.96 425.852 48.096C425.852 50.232 427.244 51.432 428.876 51.432C430.508 51.432 431.324 50.352 431.588 49.44L434.396 50.376C433.868 52.344 432.02 54.36 428.876 54.36C425.396 54.36 422.66 51.72 422.66 48.096C422.66 44.448 425.348 41.832 428.78 41.832C431.996 41.832 433.82 43.824 434.324 45.816L431.468 46.776C431.18 45.792 430.436 44.784 428.852 44.784ZM439.935 47.064V54H436.743V36.624H439.935V43.176C440.703 42.264 441.999 41.88 443.127 41.88C446.127 41.88 447.519 43.968 447.519 46.56V54H444.327V47.112C444.327 45.792 443.679 44.76 442.143 44.76C440.799 44.76 440.007 45.768 439.935 47.064ZM450.039 50.784C450.039 48.672 451.599 47.496 453.567 47.208L456.471 46.776C457.143 46.68 457.359 46.344 457.359 45.936C457.359 45.096 456.711 44.4 455.367 44.4C453.975 44.4 453.207 45.288 453.111 46.32L450.279 45.72C450.471 43.872 452.175 41.832 455.343 41.832C459.087 41.832 460.479 43.944 460.479 46.32V52.128C460.479 52.752 460.551 53.592 460.623 54H457.695C457.623 53.688 457.575 53.04 457.575 52.584C456.975 53.52 455.847 54.336 454.095 54.336C451.575 54.336 450.039 52.632 450.039 50.784ZM454.767 51.96C456.111 51.96 457.359 51.312 457.359 49.224V48.696L454.695 49.104C453.879 49.224 453.231 49.68 453.231 50.592C453.231 51.288 453.735 51.96 454.767 51.96ZM462.688 50.712L465.424 50.112C465.496 51.048 466.192 51.912 467.584 51.912C468.64 51.912 469.144 51.36 469.144 50.736C469.144 50.208 468.784 49.776 467.872 49.584L466.312 49.224C464.032 48.72 463 47.352 463 45.696C463 43.584 464.872 41.832 467.416 41.832C470.776 41.832 471.904 43.968 472.048 45.24L469.384 45.84C469.288 45.144 468.784 44.256 467.44 44.256C466.6 44.256 465.928 44.76 465.928 45.432C465.928 46.008 466.36 46.368 467.008 46.488L468.688 46.848C471.016 47.328 472.192 48.744 472.192 50.472C472.192 52.392 470.704 54.36 467.608 54.36C464.056 54.36 462.832 52.056 462.688 50.712ZM477.951 54H474.759V42.192H477.951V54ZM474.375 38.328C474.375 37.224 475.263 36.336 476.343 36.336C477.447 36.336 478.311 37.224 478.311 38.328C478.311 39.384 477.447 40.272 476.343 40.272C475.263 40.272 474.375 39.384 474.375 38.328ZM484.56 47.208V54H481.368V42.192H484.464V43.656C485.184 42.432 486.6 41.88 487.872 41.88C490.8 41.88 492.144 43.968 492.144 46.56V54H488.952V47.112C488.952 45.792 488.304 44.76 486.768 44.76C485.376 44.76 484.56 45.84 484.56 47.208ZM494.544 54.648L497.424 53.88C497.64 55.176 498.672 56.112 500.184 56.112C502.2 56.112 503.328 55.104 503.328 52.824V51.96C502.848 52.728 501.744 53.472 500.04 53.472C496.896 53.472 494.544 51.048 494.544 47.736C494.544 44.616 496.8 41.976 500.04 41.976C501.912 41.976 502.992 42.792 503.4 43.584V42.192H506.472V52.728C506.472 55.968 504.72 58.92 500.28 58.92C497.04 58.92 494.88 56.904 494.544 54.648ZM500.592 50.736C502.224 50.736 503.376 49.56 503.376 47.736C503.376 45.912 502.128 44.76 500.592 44.76C499.008 44.76 497.76 45.912 497.76 47.736C497.76 49.584 498.936 50.736 500.592 50.736ZM354.114 69.264C353.394 69.264 352.458 69.576 352.458 70.896V72.192H355.122V74.928H352.458V84H349.242V74.928H347.274V72.192H349.242V70.848C349.242 68.184 350.922 66.456 353.538 66.456C354.21 66.456 354.858 66.576 355.122 66.696V69.384C354.954 69.336 354.642 69.264 354.114 69.264ZM364.396 72.144V75.36C364.036 75.288 363.724 75.264 363.436 75.264C361.804 75.264 360.388 76.056 360.388 78.6V84H357.196V72.192H360.292V73.944C361.012 72.384 362.644 72.096 363.652 72.096C363.916 72.096 364.156 72.12 364.396 72.144ZM371.828 81.456C373.388 81.456 374.828 80.328 374.828 78.096C374.828 75.864 373.388 74.736 371.828 74.736C370.268 74.736 368.828 75.864 368.828 78.096C368.828 80.304 370.268 81.456 371.828 81.456ZM371.828 71.832C375.356 71.832 378.02 74.448 378.02 78.096C378.02 81.72 375.356 84.36 371.828 84.36C368.3 84.36 365.636 81.72 365.636 78.096C365.636 74.448 368.3 71.832 371.828 71.832ZM383.732 84H380.54V72.192H383.588V73.632C384.236 72.48 385.748 71.856 387.044 71.856C388.652 71.856 389.948 72.552 390.548 73.824C391.484 72.384 392.732 71.856 394.292 71.856C396.476 71.856 398.564 73.176 398.564 76.344V84H395.468V76.992C395.468 75.72 394.844 74.76 393.38 74.76C392.012 74.76 391.196 75.816 391.196 77.088V84H388.028V76.992C388.028 75.72 387.38 74.76 385.94 74.76C384.548 74.76 383.732 75.792 383.732 77.088V84Z" fill="black"/>
<path d="M413.511 87.936H407.967V64.56H413.511V66.984H410.631V85.464H413.511V87.936ZM418.999 68.664V72.192H421.375V75.024H418.999V79.968C418.999 81 419.479 81.336 420.391 81.336C420.775 81.336 421.207 81.288 421.375 81.24V83.88C421.087 84 420.511 84.168 419.575 84.168C417.271 84.168 415.831 82.8 415.831 80.52V75.024H413.695V72.192H414.295C415.543 72.192 416.119 71.376 416.119 70.32V68.664H418.999ZM426.693 77.064V84H423.501V66.624H426.693V73.176C427.461 72.264 428.757 71.88 429.885 71.88C432.885 71.88 434.277 73.968 434.277 76.56V84H431.085V77.112C431.085 75.792 430.437 74.76 428.901 74.76C427.557 74.76 426.765 75.768 426.693 77.064ZM444.717 72.144V75.36C444.357 75.288 444.045 75.264 443.757 75.264C442.125 75.264 440.709 76.056 440.709 78.6V84H437.517V72.192H440.613V73.944C441.333 72.384 442.965 72.096 443.973 72.096C444.237 72.096 444.477 72.12 444.717 72.144ZM451.557 88.656H448.173L450.957 82.512L445.941 72.192H449.517L452.661 79.104L455.565 72.192H458.973L451.557 88.656ZM466.754 69.264C466.034 69.264 465.098 69.576 465.098 70.896V72.192H467.762V74.928H465.098V84H461.882V74.928H459.914V72.192H461.882V70.848C461.882 68.184 463.562 66.456 466.178 66.456C466.85 66.456 467.498 66.576 467.762 66.696V69.384C467.594 69.336 467.282 69.264 466.754 69.264ZM474.288 68.664V72.192H476.664V75.024H474.288V79.968C474.288 81 474.768 81.336 475.68 81.336C476.064 81.336 476.496 81.288 476.664 81.24V83.88C476.376 84 475.8 84.168 474.864 84.168C472.56 84.168 471.12 82.8 471.12 80.52V75.024H468.984V72.192H469.584C470.832 72.192 471.408 71.376 471.408 70.32V68.664H474.288ZM481.587 76.752H486.867C486.819 75.576 486.051 74.424 484.227 74.424C482.571 74.424 481.659 75.672 481.587 76.752ZM487.179 79.824L489.843 80.616C489.243 82.656 487.371 84.36 484.467 84.36C481.227 84.36 478.371 82.032 478.371 78.048C478.371 74.28 481.155 71.832 484.179 71.832C487.827 71.832 490.011 74.16 490.011 77.952C490.011 78.408 489.963 78.888 489.963 78.936H481.515C481.587 80.496 482.907 81.624 484.491 81.624C485.979 81.624 486.795 80.88 487.179 79.824ZM499.724 72.144V75.36C499.364 75.288 499.052 75.264 498.764 75.264C497.132 75.264 495.716 76.056 495.716 78.6V84H492.524V72.192H495.62V73.944C496.34 72.384 497.972 72.096 498.98 72.096C499.244 72.096 499.484 72.12 499.724 72.144ZM506.047 87.936H500.503V85.464H503.359V66.984H500.503V64.56H506.047V87.936Z" fill="#565BD7"/>
<path d="M449.77 125.466C446.853 121.571 443.075 115.822 441.638 110.587C440.783 107.459 441.178 105.983 441.178 105.966C441.188 105.918 441.172 105.871 441.134 105.842C441.095 105.818 441.046 105.824 441.013 105.853C440.97 105.9 439.868 107.069 439.27 109.347C438.919 110.681 438.82 112.127 438.973 113.632C439.165 115.509 439.752 117.498 440.717 119.535C440.794 119.7 440.887 119.871 440.975 120.036C441.068 120.213 441.167 120.396 441.249 120.568C442.11 122.397 443.426 124.587 445.18 127.072C442.17 123.991 440.695 121.571 439.983 120.042C439.138 118.236 439.144 117.239 439.144 117.227C439.144 117.179 439.116 117.138 439.072 117.121C439.029 117.109 438.985 117.127 438.963 117.168C438.93 117.227 438.211 118.62 438.217 120.892C438.223 122.226 438.475 123.578 438.973 124.923C439.478 126.287 440.24 127.638 441.244 128.955C438.924 126.889 438.623 125.49 438.617 125.473C438.606 125.425 438.574 125.39 438.524 125.39C438.48 125.39 438.436 125.419 438.426 125.461C438.415 125.49 438.201 126.228 438.305 127.373C438.403 128.423 438.709 130.102 440.08 131.772C440.097 131.796 440.124 131.807 440.152 131.807C440.168 131.807 440.179 131.801 440.195 131.796L442.626 130.465L444.804 129.335L452.068 133.233C452.144 133.115 452.134 133.103 452.134 133.103C452.758 131.87 452.813 129.539 449.77 125.466Z" fill="#C7D2FE"/>
<path d="M462.184 139.497C462.156 139.48 462.118 139.473 462.09 139.491L445.093 148.639C445.06 148.657 445.038 148.693 445.038 148.734V167.03C445.038 167.065 445.054 167.101 445.087 167.119C445.104 167.13 445.12 167.137 445.136 167.137C445.153 167.137 445.169 167.131 445.18 167.125L462.178 157.977C462.211 157.959 462.233 157.924 462.233 157.882V139.586C462.233 139.556 462.217 139.521 462.184 139.497Z" fill="#6366F1"/>
<path d="M444.501 148.645L433.627 142.703C433.583 142.68 433.529 142.697 433.501 142.739C433.474 142.786 433.485 142.844 433.523 142.88C435.607 144.644 436.466 145.44 436.552 147.818C436.488 148.787 436.355 149.44 435.373 150.016C434.258 150.671 430.685 149.823 428.077 149.154C427.934 149.118 427.5 148.987 427.315 149.102C427.229 149.156 427.213 149.238 427.213 149.371C427.213 150.718 427.36 157.882 427.36 157.882C427.36 157.923 427.382 157.959 427.415 157.976L444.413 167.124C444.43 167.13 444.441 167.136 444.457 167.136C444.473 167.136 444.495 167.13 444.506 167.118C444.534 167.1 444.556 167.065 444.556 167.03V148.734C444.555 148.699 444.533 148.663 444.501 148.645Z" fill="#6366F1"/>
<path d="M461.838 138.948L452.736 134.05L444.84 129.8C444.813 129.782 444.78 129.782 444.753 129.8L442.658 130.928L442.329 131.105L439.78 132.48L438.705 133.058L438.453 133.194L432.069 136.63C432.042 136.642 431.979 136.708 431.973 136.738C431.968 136.767 431.977 136.855 431.994 136.879C433.178 138.938 433.545 140.572 433.133 141.882C433.117 141.935 433.157 142.016 433.2 142.04L444.747 148.292C444.763 148.298 444.774 148.303 444.79 148.303C444.807 148.303 444.823 148.297 444.834 148.292L461.832 139.144C461.865 139.126 461.887 139.09 461.887 139.049C461.887 139.008 461.871 138.966 461.838 138.948Z" fill="#6366F1"/>
<path d="M432.915 142.761L432.558 142.496L432.767 141.982V141.976C432.767 141.976 432.767 141.976 432.767 141.97C433.183 140.648 432.8 138.942 431.626 136.9C431.253 136.251 430.793 135.554 430.255 134.84C427.371 130.992 423.643 125.32 422.222 120.156C421.548 117.689 421.63 116.095 421.772 115.6C421.783 115.552 421.767 115.505 421.728 115.475C421.69 115.452 421.641 115.458 421.608 115.487C421.564 115.535 420.473 116.685 419.886 118.94C419.541 120.256 419.442 121.685 419.595 123.166C419.782 125.019 420.363 126.979 421.317 128.991C421.394 129.157 421.487 129.322 421.575 129.487C421.668 129.658 421.767 129.841 421.844 130.013C422.688 131.819 423.988 133.967 425.709 136.41C422.748 133.377 421.301 130.998 420.593 129.487C419.76 127.705 419.765 126.719 419.765 126.707C419.765 126.66 419.738 126.613 419.694 126.601C419.65 126.589 419.606 126.607 419.584 126.654C419.551 126.713 418.844 128.088 418.849 130.331C418.855 131.647 419.107 132.981 419.595 134.309C420.204 135.95 421.191 137.573 422.518 139.132C421.679 138.482 420.9 137.774 420.253 137.03C419.135 135.731 418.965 134.911 418.959 134.899C418.948 134.852 418.91 134.817 418.866 134.817C418.822 134.817 418.778 134.846 418.767 134.888C418.751 134.935 418.433 136.021 418.773 137.602C419.338 140.229 421.284 142.094 422.82 143.198C422.918 143.269 423.028 143.339 423.137 143.41C423.247 143.481 423.362 143.558 423.466 143.634C424.009 144.03 424.651 144.437 425.385 144.856C420.253 143.097 419.398 141.144 419.392 141.126C419.376 141.085 419.332 141.055 419.288 141.061C419.245 141.067 419.211 141.103 419.2 141.149C419.195 141.191 419.058 142.182 419.606 143.457C420.516 145.582 422.611 146.798 424.201 147.447C424.305 147.489 424.415 147.53 424.524 147.565C424.64 147.606 424.76 147.648 424.864 147.689C425.616 147.996 426.433 148.279 427.293 148.521C429.619 149.208 433.815 150.304 434.957 149.726C436.182 149.106 436.189 148.32 435.993 146.731C435.954 146.41 435.811 145.866 435.244 145.138C434.517 144.203 433.421 143.274 432.915 142.761Z" fill="#C7D2FE"/>
<path d="M387.295 131.685C386.78 135.81 353.529 132.317 351.839 132.158C332.005 130.285 312.573 128.336 296.054 116.399C285.429 108.721 276.682 98.971 268.319 88.9797C249.344 66.3101 219.3 43.4839 188.424 59.1963C173.961 66.5569 162.358 78.3707 152.81 91.2647C149.307 95.995 139.952 107.894 141.779 115.454C143.211 121.375 151.067 141.985 163.66 143.61C179.16 145.61 192.66 138.11 197.16 121.61C194.66 101.61 177.308 96.1881 171.484 94.18C150.801 87.048 125.88 88.0254 104.353 90.1616C70.2139 93.5494 34.1379 107.315 15.2395 137.2C9.92858 145.599 5.52693 154.934 3.10554 164.62C1.36162 171.596 1.92834 178.857 3.10554 185.894" stroke="#E2E2E2" stroke-width="4" stroke-linecap="round" stroke-dasharray="8 8"/>
</svg>
