<svg width="347" height="162" viewBox="0 0 347 162" fill="none" xmlns="http://www.w3.org/2000/svg">
<path d="M224.935 8.44H220.455V20H217.675V8.44H213.195V5.82H224.935V8.44ZM229.396 14.22V20H226.736V5.52H229.396V10.98C230.036 10.22 231.116 9.9 232.056 9.9C234.556 9.9 235.716 11.64 235.716 13.8V20H233.056V14.26C233.056 13.16 232.516 12.3 231.236 12.3C230.116 12.3 229.456 13.14 229.396 14.22ZM237.816 17.32C237.816 15.56 239.116 14.58 240.756 14.34L243.176 13.98C243.736 13.9 243.916 13.62 243.916 13.28C243.916 12.58 243.376 12 242.256 12C241.096 12 240.456 12.74 240.376 13.6L238.016 13.1C238.176 11.56 239.596 9.86 242.236 9.86C245.356 9.86 246.516 11.62 246.516 13.6V18.44C246.516 18.96 246.576 19.66 246.636 20H244.196C244.136 19.74 244.096 19.2 244.096 18.82C243.596 19.6 242.656 20.28 241.196 20.28C239.096 20.28 237.816 18.86 237.816 17.32ZM241.756 18.3C242.876 18.3 243.916 17.76 243.916 16.02V15.58L241.696 15.92C241.016 16.02 240.476 16.4 240.476 17.16C240.476 17.74 240.896 18.3 241.756 18.3ZM251.857 14.34V20H249.197V10.16H251.777V11.38C252.377 10.36 253.557 9.9 254.617 9.9C257.057 9.9 258.177 11.64 258.177 13.8V20H255.517V14.26C255.517 13.16 254.977 12.3 253.697 12.3C252.537 12.3 251.857 13.2 251.857 14.34ZM270.417 10.16L266.477 14.3L270.497 20H267.237L264.637 16.24L263.537 17.4V20H260.877V5.52H263.537V13.82L266.937 10.16H270.417ZM280.39 23.88H277.57L279.89 18.76L275.71 10.16H278.69L281.31 15.92L283.73 10.16H286.57L280.39 23.88ZM292.133 17.88C293.433 17.88 294.633 16.94 294.633 15.08C294.633 13.22 293.433 12.28 292.133 12.28C290.833 12.28 289.633 13.22 289.633 15.08C289.633 16.92 290.833 17.88 292.133 17.88ZM292.133 9.86C295.073 9.86 297.293 12.04 297.293 15.08C297.293 18.1 295.073 20.3 292.133 20.3C289.193 20.3 286.973 18.1 286.973 15.08C286.973 12.04 289.193 9.86 292.133 9.86ZM305.794 20C305.754 19.8 305.714 19.34 305.714 18.94C305.174 19.86 304.034 20.26 302.994 20.26C300.614 20.26 299.254 18.52 299.254 16.38V10.16H301.914V15.84C301.914 16.94 302.474 17.82 303.714 17.82C304.894 17.82 305.574 17.02 305.574 15.88V10.16H308.234V18.22C308.234 18.98 308.294 19.66 308.334 20H305.794ZM320.574 7.72C319.974 7.72 319.194 7.98 319.194 9.08V10.16H321.414V12.44H319.194V20H316.514V12.44H314.874V10.16H316.514V9.04C316.514 6.82 317.914 5.38 320.094 5.38C320.654 5.38 321.194 5.48 321.414 5.58V7.82C321.274 7.78 321.014 7.72 320.574 7.72ZM327.348 17.88C328.648 17.88 329.848 16.94 329.848 15.08C329.848 13.22 328.648 12.28 327.348 12.28C326.048 12.28 324.848 13.22 324.848 15.08C324.848 16.92 326.048 17.88 327.348 17.88ZM327.348 9.86C330.288 9.86 332.508 12.04 332.508 15.08C332.508 18.1 330.288 20.3 327.348 20.3C324.408 20.3 322.188 18.1 322.188 15.08C322.188 12.04 324.408 9.86 327.348 9.86ZM340.608 10.12V12.8C340.308 12.74 340.048 12.72 339.808 12.72C338.448 12.72 337.268 13.38 337.268 15.5V20H334.608V10.16H337.188V11.62C337.788 10.32 339.148 10.08 339.988 10.08C340.208 10.08 340.408 10.1 340.608 10.12ZM236.643 48.8H233.983V35.16H236.563V36.36C237.003 35.6 238.103 34.94 239.583 34.94C242.463 34.94 244.123 37.14 244.123 40.06C244.123 43.04 242.263 45.24 239.483 45.24C238.123 45.24 237.123 44.7 236.643 44.04V48.8ZM241.503 40.08C241.503 38.34 240.423 37.32 239.063 37.32C237.702 37.32 236.603 38.34 236.603 40.08C236.603 41.82 237.702 42.86 239.063 42.86C240.423 42.86 241.503 41.84 241.503 40.08ZM252.63 45C252.59 44.8 252.55 44.34 252.55 43.94C252.01 44.86 250.87 45.26 249.83 45.26C247.45 45.26 246.09 43.52 246.09 41.38V35.16H248.75V40.84C248.75 41.94 249.31 42.82 250.55 42.82C251.73 42.82 252.41 42.02 252.41 40.88V35.16H255.07V43.22C255.07 43.98 255.13 44.66 255.17 45H252.63ZM263.908 35.12V37.8C263.608 37.74 263.348 37.72 263.108 37.72C261.748 37.72 260.568 38.38 260.568 40.5V45H257.908V35.16H260.488V36.62C261.088 35.32 262.448 35.08 263.288 35.08C263.508 35.08 263.708 35.1 263.908 35.12ZM270.102 37.32C268.742 37.32 267.602 38.3 267.602 40.08C267.602 41.86 268.762 42.86 270.122 42.86C271.482 42.86 272.162 41.96 272.382 41.2L274.722 41.98C274.282 43.62 272.742 45.3 270.122 45.3C267.222 45.3 264.942 43.1 264.942 40.08C264.942 37.04 267.182 34.86 270.042 34.86C272.722 34.86 274.242 36.52 274.662 38.18L272.282 38.98C272.042 38.16 271.422 37.32 270.102 37.32ZM279.338 39.22V45H276.678V30.52H279.338V35.98C279.978 35.22 281.058 34.9 281.998 34.9C284.498 34.9 285.658 36.64 285.658 38.8V45H282.998V39.26C282.998 38.16 282.458 37.3 281.178 37.3C280.058 37.3 279.398 38.14 279.338 39.22ZM287.758 42.32C287.758 40.56 289.058 39.58 290.698 39.34L293.118 38.98C293.678 38.9 293.858 38.62 293.858 38.28C293.858 37.58 293.318 37 292.198 37C291.038 37 290.398 37.74 290.318 38.6L287.958 38.1C288.118 36.56 289.538 34.86 292.178 34.86C295.298 34.86 296.458 36.62 296.458 38.6V43.44C296.458 43.96 296.518 44.66 296.578 45H294.138C294.078 44.74 294.038 44.2 294.038 43.82C293.538 44.6 292.598 45.28 291.138 45.28C289.038 45.28 287.758 43.86 287.758 42.32ZM291.698 43.3C292.817 43.3 293.858 42.76 293.858 41.02V40.58L291.638 40.92C290.958 41.02 290.418 41.4 290.418 42.16C290.418 42.74 290.838 43.3 291.698 43.3ZM298.299 42.26L300.579 41.76C300.639 42.54 301.219 43.26 302.379 43.26C303.259 43.26 303.679 42.8 303.679 42.28C303.679 41.84 303.379 41.48 302.619 41.32L301.319 41.02C299.419 40.6 298.559 39.46 298.559 38.08C298.559 36.32 300.119 34.86 302.239 34.86C305.039 34.86 305.979 36.64 306.099 37.7L303.879 38.2C303.799 37.62 303.379 36.88 302.259 36.88C301.559 36.88 300.999 37.3 300.999 37.86C300.999 38.34 301.359 38.64 301.899 38.74L303.299 39.04C305.239 39.44 306.219 40.62 306.219 42.06C306.219 43.66 304.979 45.3 302.399 45.3C299.439 45.3 298.419 43.38 298.299 42.26ZM311.018 45H308.358V35.16H311.018V45ZM308.038 31.94C308.038 31.02 308.778 30.28 309.678 30.28C310.598 30.28 311.318 31.02 311.318 31.94C311.318 32.82 310.598 33.56 309.678 33.56C308.778 33.56 308.038 32.82 308.038 31.94ZM316.525 39.34V45H313.865V35.16H316.445V36.38C317.045 35.36 318.225 34.9 319.285 34.9C321.725 34.9 322.845 36.64 322.845 38.8V45H320.185V39.26C320.185 38.16 319.645 37.3 318.365 37.3C317.205 37.3 316.525 38.2 316.525 39.34ZM324.845 45.54L327.245 44.9C327.425 45.98 328.285 46.76 329.545 46.76C331.225 46.76 332.165 45.92 332.165 44.02V43.3C331.765 43.94 330.845 44.56 329.425 44.56C326.805 44.56 324.845 42.54 324.845 39.78C324.845 37.18 326.725 34.98 329.425 34.98C330.985 34.98 331.885 35.66 332.225 36.32V35.16H334.785V43.94C334.785 46.64 333.325 49.1 329.625 49.1C326.925 49.1 325.125 47.42 324.845 45.54ZM329.885 42.28C331.245 42.28 332.205 41.3 332.205 39.78C332.205 38.26 331.165 37.3 329.885 37.3C328.565 37.3 327.525 38.26 327.525 39.78C327.525 41.32 328.505 42.28 329.885 42.28ZM212.761 57.72C212.161 57.72 211.381 57.98 211.381 59.08V60.16H213.601V62.44H211.381V70H208.701V62.44H207.061V60.16H208.701V59.04C208.701 56.82 210.101 55.38 212.281 55.38C212.841 55.38 213.381 55.48 213.601 55.58V57.82C213.461 57.78 213.201 57.72 212.761 57.72ZM221.33 60.12V62.8C221.03 62.74 220.77 62.72 220.53 62.72C219.17 62.72 217.99 63.38 217.99 65.5V70H215.33V60.16H217.91V61.62C218.51 60.32 219.87 60.08 220.71 60.08C220.93 60.08 221.13 60.1 221.33 60.12ZM227.524 67.88C228.824 67.88 230.024 66.94 230.024 65.08C230.024 63.22 228.824 62.28 227.524 62.28C226.224 62.28 225.024 63.22 225.024 65.08C225.024 66.92 226.224 67.88 227.524 67.88ZM227.524 59.86C230.464 59.86 232.684 62.04 232.684 65.08C232.684 68.1 230.464 70.3 227.524 70.3C224.584 70.3 222.364 68.1 222.364 65.08C222.364 62.04 224.584 59.86 227.524 59.86ZM237.443 70H234.783V60.16H237.323V61.36C237.863 60.4 239.123 59.88 240.203 59.88C241.543 59.88 242.623 60.46 243.123 61.52C243.903 60.32 244.943 59.88 246.243 59.88C248.063 59.88 249.803 60.98 249.803 63.62V70H247.223V64.16C247.223 63.1 246.703 62.3 245.483 62.3C244.343 62.3 243.663 63.18 243.663 64.24V70H241.023V64.16C241.023 63.1 240.483 62.3 239.283 62.3C238.123 62.3 237.443 63.16 237.443 64.24V70Z" fill="black"/>
<path d="M262.26 73.28H257.64V53.8H262.26V55.82H259.86V71.22H262.26V73.28ZM266.833 57.22V60.16H268.813V62.52H266.833V66.64C266.833 67.5 267.233 67.78 267.993 67.78C268.313 67.78 268.673 67.74 268.813 67.7V69.9C268.573 70 268.093 70.14 267.313 70.14C265.393 70.14 264.193 69 264.193 67.1V62.52H262.413V60.16H262.913C263.953 60.16 264.433 59.48 264.433 58.6V57.22H266.833ZM273.244 64.22V70H270.584V55.52H273.244V60.98C273.884 60.22 274.964 59.9 275.904 59.9C278.404 59.9 279.564 61.64 279.564 63.8V70H276.904V64.26C276.904 63.16 276.364 62.3 275.084 62.3C273.964 62.3 273.304 63.14 273.244 64.22ZM288.264 60.12V62.8C287.964 62.74 287.704 62.72 287.464 62.72C286.104 62.72 284.924 63.38 284.924 65.5V70H282.264V60.16H284.844V61.62C285.444 60.32 286.804 60.08 287.644 60.08C287.864 60.08 288.064 60.1 288.264 60.12ZM293.965 73.88H291.145L293.465 68.76L289.285 60.16H292.265L294.885 65.92L297.305 60.16H300.145L293.965 73.88ZM306.628 57.72C306.028 57.72 305.248 57.98 305.248 59.08V60.16H307.468V62.44H305.248V70H302.568V62.44H300.928V60.16H302.568V59.04C302.568 56.82 303.968 55.38 306.148 55.38C306.708 55.38 307.248 55.48 307.468 55.58V57.82C307.328 57.78 307.068 57.72 306.628 57.72ZM312.907 57.22V60.16H314.887V62.52H312.907V66.64C312.907 67.5 313.307 67.78 314.067 67.78C314.387 67.78 314.747 67.74 314.887 67.7V69.9C314.647 70 314.167 70.14 313.387 70.14C311.467 70.14 310.267 69 310.267 67.1V62.52H308.487V60.16H308.987C310.027 60.16 310.507 59.48 310.507 58.6V57.22H312.907ZM318.989 63.96H323.389C323.349 62.98 322.709 62.02 321.189 62.02C319.809 62.02 319.049 63.06 318.989 63.96ZM323.649 66.52L325.869 67.18C325.369 68.88 323.809 70.3 321.389 70.3C318.689 70.3 316.309 68.36 316.309 65.04C316.309 61.9 318.629 59.86 321.149 59.86C324.189 59.86 326.009 61.8 326.009 64.96C326.009 65.34 325.969 65.74 325.969 65.78H318.929C318.989 67.08 320.089 68.02 321.409 68.02C322.649 68.02 323.329 67.4 323.649 66.52ZM334.104 60.12V62.8C333.804 62.74 333.544 62.72 333.304 62.72C331.944 62.72 330.764 63.38 330.764 65.5V70H328.104V60.16H330.684V61.62C331.284 60.32 332.644 60.08 333.484 60.08C333.704 60.08 333.904 60.1 334.104 60.12ZM339.372 73.28H334.752V71.22H337.132V55.82H334.752V53.8H339.372V73.28Z" fill="#393EA8"/>
<path d="M0 42.7625C8.90909 -4.1411 61.7289 15.8652 69.6657 26.2203C77.2258 36.084 81.2224 49.1482 82.6665 61.0717C83.9809 71.9234 85.388 86.141 77.0614 95.1375C70.9906 101.697 66.1777 109.542 56.5869 110.52C51.2577 111.063 45.1818 107.993 47.1282 99.9581C47.9606 96.522 53.7161 96.423 56.5869 96.423C61.2588 96.423 67.2679 99.3751 69.8992 102.886C74.8086 109.437 75.145 115.278 77.2171 122.776C79.4185 130.742 83.7425 138.645 90.2509 144.616C93.279 147.394 95.7899 150.905 99.5 152.485C105.325 154.966 111.712 158.359 118 159.5C135.458 162.668 155 164 173.94 142.484C229.783 79.0481 264.35 169.593 294 152.485" stroke="#E2E2E2" stroke-width="2" stroke-linecap="round" stroke-dasharray="16 16"/>
<path d="M331.641 119.046C329.486 116.373 326.695 112.427 325.633 108.834C325.002 106.687 325.293 105.675 325.293 105.663C325.301 105.63 325.289 105.598 325.261 105.578C325.233 105.562 325.196 105.565 325.172 105.586C325.14 105.618 324.326 106.42 323.884 107.984C323.625 108.899 323.552 109.892 323.665 110.924C323.807 112.212 324.24 113.578 324.953 114.975C325.01 115.089 325.079 115.206 325.144 115.32C325.212 115.441 325.285 115.567 325.346 115.684C325.982 116.94 326.954 118.443 328.25 120.148C326.027 118.033 324.937 116.373 324.411 115.324C323.787 114.084 323.791 113.399 323.791 113.391C323.791 113.359 323.77 113.331 323.738 113.318C323.706 113.31 323.673 113.323 323.657 113.351C323.633 113.392 323.102 114.347 323.106 115.907C323.11 116.822 323.297 117.75 323.665 118.674C324.038 119.609 324.601 120.537 325.342 121.44C323.629 120.022 323.406 119.062 323.402 119.05C323.394 119.018 323.37 118.994 323.333 118.994C323.301 118.994 323.268 119.014 323.26 119.042C323.252 119.062 323.094 119.569 323.171 120.355C323.244 121.075 323.47 122.228 324.483 123.374C324.495 123.39 324.515 123.398 324.535 123.398C324.548 123.398 324.556 123.394 324.568 123.39L326.363 122.477L327.972 121.701L333.338 124.377C333.395 124.296 333.387 124.287 333.387 124.287C333.848 123.441 333.889 121.841 331.641 119.046Z" fill="#C7D2FE"/>
<path d="M340.811 128.675C340.791 128.663 340.763 128.659 340.742 128.672L328.185 134.95C328.161 134.962 328.145 134.986 328.145 135.014V147.571C328.145 147.596 328.157 147.62 328.182 147.632C328.194 147.64 328.206 147.644 328.218 147.644C328.23 147.644 328.242 147.64 328.25 147.636L340.807 141.358C340.832 141.346 340.848 141.322 340.848 141.293V128.736C340.848 128.716 340.836 128.692 340.811 128.675Z" fill="#6366F1"/>
<path d="M327.748 134.954L319.716 130.876C319.683 130.86 319.643 130.871 319.622 130.9C319.602 130.932 319.611 130.973 319.639 130.997C321.178 132.208 321.813 132.754 321.876 134.386C321.829 135.051 321.731 135.499 321.005 135.895C320.182 136.344 317.542 135.762 315.615 135.303C315.51 135.278 315.189 135.188 315.053 135.267C314.989 135.304 314.977 135.361 314.977 135.452C314.977 136.377 315.086 141.293 315.086 141.293C315.086 141.321 315.102 141.346 315.127 141.358L327.684 147.636C327.696 147.64 327.704 147.644 327.716 147.644C327.728 147.644 327.744 147.64 327.752 147.632C327.773 147.62 327.789 147.595 327.789 147.571V135.014C327.789 134.99 327.772 134.966 327.748 134.954Z" fill="#6366F1"/>
<path d="M340.556 128.299L333.832 124.937L327.999 122.02C327.979 122.008 327.955 122.008 327.934 122.02L326.387 122.794L326.144 122.916L324.261 123.86L323.467 124.256L323.28 124.35L318.565 126.707C318.544 126.716 318.498 126.761 318.494 126.781C318.49 126.802 318.497 126.862 318.509 126.878C319.384 128.292 319.655 129.413 319.351 130.312C319.339 130.349 319.368 130.404 319.4 130.42L327.93 134.711C327.942 134.715 327.95 134.719 327.962 134.719C327.975 134.719 327.987 134.715 327.995 134.711L340.552 128.433C340.576 128.421 340.592 128.396 340.592 128.368C340.592 128.34 340.581 128.311 340.556 128.299Z" fill="#6366F1"/>
<path d="M319.189 130.916L318.926 130.733L319.08 130.381V130.377C319.08 130.377 319.08 130.377 319.08 130.372C319.388 129.465 319.104 128.294 318.237 126.893C317.962 126.447 317.622 125.969 317.224 125.479C315.094 122.839 312.34 118.946 311.29 115.401C310.792 113.708 310.853 112.615 310.958 112.274C310.966 112.242 310.954 112.21 310.926 112.189C310.897 112.173 310.861 112.177 310.836 112.197C310.804 112.23 309.998 113.02 309.565 114.567C309.309 115.47 309.236 116.451 309.35 117.467C309.488 118.739 309.917 120.084 310.622 121.465C310.679 121.579 310.747 121.692 310.812 121.806C310.881 121.923 310.954 122.049 311.011 122.166C311.634 123.406 312.594 124.88 313.866 126.557C311.679 124.475 310.609 122.842 310.087 121.806C309.471 120.582 309.475 119.906 309.475 119.898C309.475 119.865 309.455 119.833 309.423 119.825C309.39 119.817 309.358 119.829 309.342 119.861C309.317 119.902 308.795 120.845 308.799 122.385C308.803 123.288 308.989 124.203 309.35 125.115C309.799 126.241 310.529 127.355 311.509 128.424C310.889 127.979 310.314 127.493 309.836 126.982C309.009 126.091 308.884 125.528 308.88 125.52C308.872 125.488 308.843 125.463 308.811 125.463C308.778 125.463 308.746 125.484 308.738 125.512C308.726 125.544 308.491 126.29 308.742 127.375C309.16 129.178 310.597 130.458 311.732 131.215C311.804 131.264 311.885 131.312 311.966 131.361C312.047 131.409 312.132 131.462 312.209 131.515C312.61 131.786 313.084 132.066 313.627 132.353C309.836 131.146 309.204 129.805 309.2 129.793C309.187 129.765 309.155 129.745 309.123 129.749C309.091 129.753 309.066 129.777 309.058 129.809C309.054 129.838 308.953 130.518 309.358 131.393C310.03 132.851 311.577 133.686 312.752 134.132C312.829 134.16 312.91 134.188 312.991 134.213C313.076 134.241 313.165 134.269 313.242 134.298C313.797 134.508 314.401 134.703 315.037 134.869C316.755 135.34 319.854 136.092 320.698 135.696C321.603 135.27 321.608 134.73 321.464 133.64C321.434 133.42 321.329 133.046 320.91 132.547C320.373 131.905 319.563 131.268 319.189 130.916Z" fill="#C7D2FE"/>
</svg>
