<svg width="54" height="54" viewBox="0 0 54 54" fill="none" xmlns="http://www.w3.org/2000/svg">
<path d="M35.1501 17.2383C32.5053 13.9573 29.0803 9.11515 27.7774 4.70575C27.0019 2.07085 27.3601 0.828103 27.3601 0.813253C27.3699 0.773503 27.3549 0.733753 27.3205 0.708853C27.2856 0.689053 27.241 0.693703 27.2109 0.718603C27.1716 0.758353 26.1723 1.7428 25.6302 3.6616C25.3122 4.78525 25.2225 6.00325 25.3617 7.27075C25.5355 8.85145 26.0676 10.527 26.9427 12.2421C27.012 12.3813 27.0967 12.5253 27.1762 12.6648C27.2605 12.8137 27.3502 12.9681 27.4248 13.1122C28.2051 14.6532 29.3982 16.4977 30.9889 18.5904C28.2601 15.9955 26.9227 13.9572 26.2767 12.6697C25.5109 11.1486 25.5159 10.3083 25.5159 10.2982C25.5159 10.2585 25.491 10.2238 25.4514 10.209C25.4116 10.1989 25.3717 10.2141 25.3519 10.2489C25.3222 10.2987 24.6708 11.4718 24.6759 13.3858C24.681 14.5093 24.9094 15.6477 25.3617 16.7811C25.8192 17.9295 26.5099 19.0678 27.42 20.1765C25.317 18.4366 25.0435 17.2584 25.0389 17.2435C25.0288 17.2038 24.9991 17.1738 24.9544 17.1738C24.9145 17.1738 24.8748 17.1988 24.865 17.2335C24.855 17.2584 24.6612 17.8798 24.7554 18.8442C24.8448 19.7289 25.1223 21.1428 26.365 22.5495C26.38 22.5694 26.4049 22.5793 26.4298 22.5793C26.4448 22.5793 26.4547 22.5742 26.4696 22.5694L28.6731 21.4488L30.648 20.4967L37.2333 23.7804C37.3027 23.6809 37.2931 23.6709 37.2931 23.6709C37.8594 22.632 37.9089 20.6686 35.1501 17.2383Z" fill="#C7D2FE"/>
<path d="M46.4049 29.0562C46.38 29.0413 46.3449 29.0362 46.3203 29.0514L30.9094 36.7564C30.8797 36.7717 30.8596 36.8013 30.8596 36.8359V52.2466C30.8596 52.2763 30.8749 52.3066 30.9046 52.3212C30.9196 52.3311 30.9342 52.3363 30.9492 52.3363C30.9645 52.3363 30.9789 52.3312 30.9889 52.3264L46.3996 44.6211C46.4298 44.6062 46.4496 44.5765 46.4496 44.5416V29.1307C46.4494 29.1055 46.435 29.0761 46.4049 29.0562Z" fill="#6366F1"/>
<path d="M30.3727 36.7614L20.5147 31.7565C20.4748 31.7367 20.4253 31.7512 20.4003 31.7865C20.3755 31.8259 20.3857 31.8756 20.4202 31.9053C22.3093 33.3916 23.0887 34.0618 23.166 36.0648C23.1081 36.8809 22.9876 37.4305 22.0972 37.9164C21.0867 38.4679 17.8467 37.7535 15.4825 37.1901C15.3528 37.1595 14.9596 37.0492 14.7921 37.146C14.7133 37.1916 14.6991 37.2607 14.6991 37.3723C14.6991 38.5077 14.8326 44.5413 14.8326 44.5413C14.8326 44.5762 14.8525 44.6061 14.8825 44.6208L30.2934 52.3257C30.3085 52.3311 30.3184 52.3362 30.3333 52.3362C30.3481 52.3362 30.3678 52.3309 30.378 52.3207C30.4029 52.3059 30.4228 52.2759 30.4228 52.2465V36.8359C30.4224 36.8064 30.4026 36.7767 30.3727 36.7614Z" fill="#6366F1"/>
<path d="M46.0917 28.5941L37.8393 24.4679L30.6807 20.8886C30.6558 20.8737 30.6264 20.8737 30.6014 20.8886L28.7021 21.8384L28.404 21.9875L26.0925 23.1458L25.1181 23.6328L24.8895 23.7473L19.1021 26.6409C19.0773 26.651 19.0199 26.7069 19.0148 26.7318C19.01 26.7567 19.0185 26.8308 19.0335 26.8506C20.1072 28.5855 20.4399 29.9615 20.0669 31.0652C20.052 31.1099 20.0879 31.178 20.1276 31.1978L30.5961 36.4638C30.611 36.4686 30.621 36.4734 30.6356 36.4734C30.6506 36.4734 30.6653 36.4685 30.6753 36.4638L46.0862 28.7585C46.1157 28.7436 46.1358 28.7136 46.1358 28.679C46.1358 28.6443 46.1216 28.6086 46.0917 28.5941Z" fill="#6366F1"/>
<path d="M19.8687 31.8054L19.5456 31.5818L19.7345 31.149V31.1439C19.7345 31.1439 19.7345 31.1439 19.7345 31.139C20.1122 30.0254 19.7643 28.5887 18.7004 26.8686C18.3623 26.3219 17.9448 25.7352 17.4573 25.1339C14.8425 21.8928 11.4623 17.1153 10.1745 12.7655C9.5628 10.6875 9.6375 9.34535 9.7665 8.92775C9.77655 8.888 9.7614 8.84825 9.72675 8.8232C9.6921 8.8034 9.64725 8.8085 9.61725 8.83325C9.5775 8.873 8.5884 9.84245 8.0565 11.7416C7.74315 12.8499 7.65375 14.0532 7.79295 15.3008C7.962 16.8617 8.48895 18.5123 9.354 20.2074C9.42375 20.3466 9.50805 20.4857 9.5877 20.625C9.67215 20.7692 9.76155 20.9232 9.83115 21.0675C10.5968 22.5887 11.775 24.3981 13.3358 26.4563C10.6514 23.9012 9.33885 21.8975 8.6976 20.625C7.9419 19.1235 7.947 18.2934 7.947 18.2835C7.947 18.2438 7.92195 18.204 7.8822 18.194C7.84245 18.1842 7.8027 18.1991 7.78275 18.2387C7.7529 18.2886 7.11165 19.4466 7.11645 21.3357C7.12155 22.4442 7.35015 23.5679 7.79265 24.6864C8.34465 26.0682 9.23955 27.4355 10.4424 28.7483C9.68175 28.2014 8.976 27.6048 8.3892 26.9783C7.37505 25.8845 7.221 25.1937 7.2159 25.1837C7.206 25.1439 7.1712 25.1141 7.13145 25.1141C7.0917 25.1141 7.05195 25.139 7.04205 25.1736C7.0272 25.2134 6.73875 26.1281 7.04715 27.4604C7.5594 29.6727 9.324 31.2437 10.716 32.1732C10.8054 32.2328 10.9049 32.2922 11.0042 32.3519C11.1035 32.4116 11.208 32.4765 11.3025 32.5409C11.7945 32.8743 12.3764 33.2172 13.0424 33.57C8.3892 32.0886 7.6137 30.4431 7.6086 30.4283C7.5936 30.3936 7.55385 30.3684 7.51425 30.3734C7.4748 30.3785 7.44465 30.4085 7.43475 30.4479C7.42965 30.483 7.30545 31.3178 7.80255 32.3916C8.62785 34.1813 10.5269 35.2055 11.9684 35.7525C12.0627 35.7872 12.1622 35.8218 12.2616 35.852C12.3662 35.8865 12.4752 35.9214 12.57 35.9562C13.2512 36.2147 13.9917 36.4533 14.7722 36.657C16.8807 37.2351 20.6847 38.159 21.72 37.6719C22.8308 37.1493 22.8371 36.4872 22.6598 35.1494C22.6241 34.8789 22.4942 34.4202 21.9806 33.8072C21.3215 33.0198 20.3277 32.2376 19.8687 31.8054Z" fill="#C7D2FE"/>
</svg>
